<svg xmlns="http://www.w3.org/2000/svg" width="485" height="329" fill="none" viewBox="0 0 485 329"><path fill="url(#paint0_linear_348_40)" d="M242.225 152.737L242 152.962L241.753 152.737C231.065 143.04 224 136.628 224 130.125C224 125.625 227.375 122.25 231.875 122.25C235.34 122.25 238.715 124.5 239.907 127.56H244.093C245.285 124.5 248.66 122.25 252.125 122.25C256.625 122.25 260 125.625 260 130.125C260 136.628 252.935 143.04 242.225 152.737ZM252.125 117.75C248.21 117.75 244.453 119.572 242 122.43C239.547 119.572 235.79 117.75 231.875 117.75C224.945 117.75 219.5 123.173 219.5 130.125C219.5 138.607 227.15 145.56 238.738 156.068L242 159.038L245.262 156.068C256.85 145.56 264.5 138.607 264.5 130.125C264.5 123.173 259.055 117.75 252.125 117.75Z"/><g filter="url(#filter0_d_348_40)"><rect width="66.853" height="64.599" x="112.295" y="79" fill="#fff" rx="32.3"/><rect width="65.853" height="63.599" x="112.795" y="79.5" stroke="#DEDEDE" rx="31.799"/></g><g filter="url(#filter1_d_348_40)"><mask id="path-4-inside-1_348_40" fill="#fff"><path fill-rule="evenodd" d="M139 161.627C108.072 161.627 83 186.699 83 217.627V242H209.194V217.627C209.194 186.699 184.122 161.627 153.194 161.627H139Z" clip-rule="evenodd"/></mask><path fill="#fff" fill-rule="evenodd" d="M139 161.627C108.072 161.627 83 186.699 83 217.627V242H209.194V217.627C209.194 186.699 184.122 161.627 153.194 161.627H139Z" clip-rule="evenodd"/><path fill="#DEDEDE" d="M83 242H82V243H83V242ZM209.194 242V243H210.194V242H209.194ZM84 217.627C84 187.251 108.624 162.627 139 162.627V160.627C107.52 160.627 82 186.147 82 217.627H84ZM84 242V217.627H82V242H84ZM83 243H209.194V241H83V243ZM208.194 217.627V242H210.194V217.627H208.194ZM153.194 162.627C183.569 162.627 208.194 187.251 208.194 217.627H210.194C210.194 186.147 184.674 160.627 153.194 160.627V162.627ZM139 162.627H153.194V160.627H139V162.627Z" mask="url(#path-4-inside-1_348_40)"/></g><g filter="url(#filter2_d_348_40)"><rect width="66.853" height="64.599" x="304.295" y="79" fill="#fff" rx="32.3"/><rect width="65.853" height="63.599" x="304.795" y="79.5" stroke="#DEDEDE" rx="31.799"/></g><g filter="url(#filter3_d_348_40)"><mask id="path-8-inside-2_348_40" fill="#fff"><path fill-rule="evenodd" d="M331 161.627C300.072 161.627 275 186.699 275 217.627V242H401.194V217.627C401.194 186.699 376.122 161.627 345.194 161.627H331Z" clip-rule="evenodd"/></mask><path fill="#fff" fill-rule="evenodd" d="M331 161.627C300.072 161.627 275 186.699 275 217.627V242H401.194V217.627C401.194 186.699 376.122 161.627 345.194 161.627H331Z" clip-rule="evenodd"/><path fill="#DEDEDE" d="M275 242H274V243H275V242ZM401.194 242V243H402.194V242H401.194ZM276 217.627C276 187.251 300.624 162.627 331 162.627V160.627C299.52 160.627 274 186.147 274 217.627H276ZM276 242V217.627H274V242H276ZM275 243H401.194V241H275V243ZM400.194 217.627V242H402.194V217.627H400.194ZM345.194 162.627C375.569 162.627 400.194 187.251 400.194 217.627H402.194C402.194 186.147 376.674 160.627 345.194 160.627V162.627ZM331 162.627H345.194V160.627H331V162.627Z" mask="url(#path-8-inside-2_348_40)"/></g><defs><filter id="filter0_d_348_40" width="232.852" height="230.599" x="29.295" y="0" color-interpolation-filters="sRGB" filterUnits="userSpaceOnUse"><feFlood flood-opacity="0" result="BackgroundImageFix"/><feColorMatrix in="SourceAlpha" result="hardAlpha" type="matrix" values="0 0 0 0 0 0 0 0 0 0 0 0 0 0 0 0 0 0 127 0"/><feOffset dy="4"/><feGaussianBlur stdDeviation="41.5"/><feComposite in2="hardAlpha" operator="out"/><feColorMatrix type="matrix" values="0 0 0 0 0 0 0 0 0 0 0 0 0 0 0 0 0 0 0.06 0"/><feBlend in2="BackgroundImageFix" mode="normal" result="effect1_dropShadow_348_40"/><feBlend in="SourceGraphic" in2="effect1_dropShadow_348_40" mode="normal" result="shape"/></filter><filter id="filter1_d_348_40" width="292.193" height="246.373" x="0" y="82.627" color-interpolation-filters="sRGB" filterUnits="userSpaceOnUse"><feFlood flood-opacity="0" result="BackgroundImageFix"/><feColorMatrix in="SourceAlpha" result="hardAlpha" type="matrix" values="0 0 0 0 0 0 0 0 0 0 0 0 0 0 0 0 0 0 127 0"/><feOffset dy="4"/><feGaussianBlur stdDeviation="41.5"/><feComposite in2="hardAlpha" operator="out"/><feColorMatrix type="matrix" values="0 0 0 0 0 0 0 0 0 0 0 0 0 0 0 0 0 0 0.06 0"/><feBlend in2="BackgroundImageFix" mode="normal" result="effect1_dropShadow_348_40"/><feBlend in="SourceGraphic" in2="effect1_dropShadow_348_40" mode="normal" result="shape"/></filter><filter id="filter2_d_348_40" width="232.852" height="230.599" x="221.295" y="0" color-interpolation-filters="sRGB" filterUnits="userSpaceOnUse"><feFlood flood-opacity="0" result="BackgroundImageFix"/><feColorMatrix in="SourceAlpha" result="hardAlpha" type="matrix" values="0 0 0 0 0 0 0 0 0 0 0 0 0 0 0 0 0 0 127 0"/><feOffset dy="4"/><feGaussianBlur stdDeviation="41.5"/><feComposite in2="hardAlpha" operator="out"/><feColorMatrix type="matrix" values="0 0 0 0 0 0 0 0 0 0 0 0 0 0 0 0 0 0 0.06 0"/><feBlend in2="BackgroundImageFix" mode="normal" result="effect1_dropShadow_348_40"/><feBlend in="SourceGraphic" in2="effect1_dropShadow_348_40" mode="normal" result="shape"/></filter><filter id="filter3_d_348_40" width="292.193" height="246.373" x="192" y="82.627" color-interpolation-filters="sRGB" filterUnits="userSpaceOnUse"><feFlood flood-opacity="0" result="BackgroundImageFix"/><feColorMatrix in="SourceAlpha" result="hardAlpha" type="matrix" values="0 0 0 0 0 0 0 0 0 0 0 0 0 0 0 0 0 0 127 0"/><feOffset dy="4"/><feGaussianBlur stdDeviation="41.5"/><feComposite in2="hardAlpha" operator="out"/><feColorMatrix type="matrix" values="0 0 0 0 0 0 0 0 0 0 0 0 0 0 0 0 0 0 0.06 0"/><feBlend in2="BackgroundImageFix" mode="normal" result="effect1_dropShadow_348_40"/><feBlend in="SourceGraphic" in2="effect1_dropShadow_348_40" mode="normal" result="shape"/></filter><linearGradient id="paint0_linear_348_40" x1="214" x2="276" y1="118" y2="168.5" gradientUnits="userSpaceOnUse"><stop stop-color="#22DCD9"/><stop offset="1" stop-color="#F73E94"/></linearGradient></defs></svg>