<svg width="48" height="49" viewBox="0 0 48 49" fill="none" xmlns="http://www.w3.org/2000/svg">
<path d="M9.66429 21.0762C10.6179 16.5215 13.6714 12.7295 17.775 10.7959C18.1607 11.3223 20.775 14.9639 23.2071 19.2822C16.35 21.1084 10.3179 21.0869 9.66429 21.0762V21.0762ZM33.7071 13.1055C30.1071 9.9043 25.2107 8.69043 20.5714 9.81836C20.9786 10.3662 23.6357 13.9971 26.0357 18.4121C31.2429 16.4463 33.4393 13.4814 33.7071 13.1055ZM15.0107 35.6641C19.35 39.0586 25.0071 39.6064 29.7214 37.5977C29.5071 36.3086 28.65 31.8184 26.5929 26.4687C20.6893 28.4883 16.5429 32.5273 15.0107 35.6641ZM25.5964 24.041C25.2321 23.2031 24.825 22.376 24.4071 21.5488C17.1 23.7402 10.0071 23.6543 9.36429 23.6328C9.36429 23.7832 9.35357 23.9336 9.35357 24.084C9.35357 27.8545 10.7786 31.292 13.1143 33.9023C15.4929 29.8311 20.3036 25.5342 25.5964 24.041V24.041ZM29.3357 25.792C31.2536 31.0664 32.025 35.3633 32.175 36.2549C35.4643 34.0312 37.8 30.4971 38.4536 26.415C37.9607 26.2539 33.9214 25.0508 29.3357 25.792V25.792ZM27.1607 20.5928C27.675 21.6455 28.05 22.5049 28.4464 23.4717C33.3214 22.8594 38.1643 23.8369 38.6464 23.9443C38.6143 20.4746 37.3821 17.2949 35.3357 14.8027C35.025 15.2217 32.5714 18.3691 27.1607 20.5928V20.5928ZM48 5.15625V42.9688C48 45.8154 45.6964 48.125 42.8571 48.125H5.14286C2.30357 48.125 0 45.8154 0 42.9688V5.15625C0 2.30957 2.30357 0 5.14286 0H42.8571C45.6964 0 48 2.30957 48 5.15625ZM41.1429 24.0625C41.1429 14.5879 33.45 6.875 24 6.875C14.55 6.875 6.85714 14.5879 6.85714 24.0625C6.85714 33.5371 14.55 41.25 24 41.25C33.45 41.25 41.1429 33.5371 41.1429 24.0625Z" fill="black"/>
</svg>
