<svg xmlns="http://www.w3.org/2000/svg" width="726" height="715" fill="none" viewBox="0 0 726 715"><g filter="url(#filter0_ddi_230_1203)"><circle cx="359" cy="349" r="260" fill="url(#paint0_linear_230_1203)"/></g><g filter="url(#filter1_dii_230_1203)"><circle cx="358.5" cy="349.5" r="191.5" fill="#F9F9FC"/></g><g filter="url(#filter2_d_230_1203)"><path fill="#fff" fill-rule="evenodd" d="M234.695 162.295C234.695 164.361 234.12 166.292 233.122 167.938L498.045 518.32C499.023 518.031 500.06 517.876 501.132 517.876C507.149 517.876 512.027 522.754 512.027 528.772C512.027 534.789 507.149 539.667 501.132 539.667C495.115 539.667 490.237 534.789 490.237 528.772C490.237 526.375 491.011 524.158 492.323 522.359L227.757 172.45C226.53 172.928 225.196 173.191 223.8 173.191C217.782 173.191 212.904 168.313 212.904 162.295C212.904 156.278 217.782 151.4 223.8 151.4C229.817 151.4 234.695 156.278 234.695 162.295Z" clip-rule="evenodd"/></g><g filter="url(#filter3_d_230_1203)"><rect width="106" height="28" x="239" y="130" fill="#fff" rx="14"/></g><path fill="#000" d="M267.503 142.532L267.111 145.668H269.141V146.228H267.041L266.705 149H266.145L266.481 146.228H263.415L263.065 149H262.505L262.841 146.228H260.825V145.668H262.911L263.303 142.532H261.259V141.972H263.373L263.709 139.2H264.283L263.933 141.972H267.013L267.349 139.2H267.909L267.573 141.972H269.589V142.532H267.503ZM266.943 142.532H263.863L263.485 145.668H266.551L266.943 142.532ZM277.547 139.2V139.704L273.333 149H272.549L276.721 139.844H271.219V141.72H270.519V139.2H277.547ZM285.486 148.356V149H278.752V148.496L282.896 144.38C283.437 143.839 283.801 143.377 283.988 142.994C284.184 142.602 284.282 142.201 284.282 141.79C284.282 141.165 284.067 140.675 283.638 140.32C283.218 139.965 282.606 139.788 281.804 139.788C281.188 139.788 280.646 139.881 280.18 140.068C279.722 140.255 279.326 140.539 278.99 140.922L278.486 140.474C278.859 140.045 279.33 139.713 279.9 139.48C280.478 139.247 281.132 139.13 281.86 139.13C282.821 139.13 283.586 139.363 284.156 139.83C284.725 140.297 285.01 140.927 285.01 141.72C285.01 142.224 284.898 142.705 284.674 143.162C284.45 143.619 284.03 144.151 283.414 144.758L279.802 148.356H285.486ZM290.702 143.204C291.346 143.204 291.915 143.325 292.41 143.568C292.914 143.801 293.301 144.142 293.572 144.59C293.842 145.029 293.978 145.537 293.978 146.116C293.978 146.704 293.838 147.222 293.558 147.67C293.278 148.118 292.89 148.463 292.396 148.706C291.901 148.949 291.341 149.07 290.716 149.07C289.446 149.07 288.471 148.641 287.79 147.782C287.118 146.914 286.782 145.705 286.782 144.156C286.782 143.073 286.959 142.159 287.314 141.412C287.678 140.656 288.186 140.087 288.84 139.704C289.493 139.321 290.258 139.13 291.136 139.13C292.06 139.13 292.802 139.298 293.362 139.634L293.068 140.208C292.601 139.909 291.957 139.76 291.136 139.76C290.006 139.76 289.115 140.129 288.462 140.866C287.818 141.594 287.496 142.653 287.496 144.044C287.496 144.473 287.524 144.865 287.58 145.22C287.776 144.585 288.154 144.091 288.714 143.736C289.283 143.381 289.946 143.204 290.702 143.204ZM290.688 148.454C291.453 148.454 292.074 148.244 292.55 147.824C293.026 147.395 293.264 146.83 293.264 146.13C293.264 145.43 293.026 144.87 292.55 144.45C292.074 144.03 291.425 143.82 290.604 143.82C290.081 143.82 289.61 143.923 289.19 144.128C288.779 144.333 288.457 144.613 288.224 144.968C288 145.323 287.888 145.719 287.888 146.158C287.888 146.55 287.995 146.923 288.21 147.278C288.434 147.633 288.756 147.917 289.176 148.132C289.596 148.347 290.1 148.454 290.688 148.454ZM301.742 148.356V149H295.008V148.496L299.152 144.38C299.693 143.839 300.057 143.377 300.244 142.994C300.44 142.602 300.538 142.201 300.538 141.79C300.538 141.165 300.323 140.675 299.894 140.32C299.474 139.965 298.862 139.788 298.06 139.788C297.444 139.788 296.902 139.881 296.436 140.068C295.978 140.255 295.582 140.539 295.246 140.922L294.742 140.474C295.115 140.045 295.586 139.713 296.156 139.48C296.734 139.247 297.388 139.13 298.116 139.13C299.077 139.13 299.842 139.363 300.412 139.83C300.981 140.297 301.266 140.927 301.266 141.72C301.266 142.224 301.154 142.705 300.93 143.162C300.706 143.619 300.286 144.151 299.67 144.758L296.058 148.356H301.742ZM304.03 139.2H307.908C308.926 139.2 309.826 139.41 310.61 139.83C311.404 140.25 312.02 140.833 312.458 141.58C312.897 142.317 313.116 143.157 313.116 144.1C313.116 145.043 312.897 145.887 312.458 146.634C312.02 147.371 311.404 147.95 310.61 148.37C309.826 148.79 308.926 149 307.908 149H304.03V139.2ZM307.852 148.356C308.758 148.356 309.556 148.179 310.246 147.824C310.937 147.46 311.469 146.956 311.842 146.312C312.216 145.668 312.402 144.931 312.402 144.1C312.402 143.269 312.216 142.532 311.842 141.888C311.469 141.244 310.937 140.745 310.246 140.39C309.556 140.026 308.758 139.844 307.852 139.844H304.744V148.356H307.852ZM321.522 146.242H315.838L314.592 149H313.822L318.33 139.2H319.044L323.552 149H322.782L321.522 146.242ZM321.256 145.64L318.68 139.984L316.118 145.64H321.256Z"/><defs><filter id="filter0_ddi_230_1203" width="726" height="715" x="0" y="0" color-interpolation-filters="sRGB" filterUnits="userSpaceOnUse"><feFlood flood-opacity="0" result="BackgroundImageFix"/><feColorMatrix in="SourceAlpha" result="hardAlpha" type="matrix" values="0 0 0 0 0 0 0 0 0 0 0 0 0 0 0 0 0 0 127 0"/><feOffset dx="-41" dy="-31"/><feGaussianBlur stdDeviation="29"/><feComposite in2="hardAlpha" operator="out"/><feColorMatrix type="matrix" values="0 0 0 0 0.882353 0 0 0 0 0.14902 0 0 0 0 0.505882 0 0 0 0.1 0"/><feBlend in2="BackgroundImageFix" mode="normal" result="effect1_dropShadow_230_1203"/><feColorMatrix in="SourceAlpha" result="hardAlpha" type="matrix" values="0 0 0 0 0 0 0 0 0 0 0 0 0 0 0 0 0 0 127 0"/><feOffset dx="38" dy="37"/><feGaussianBlur stdDeviation="34.5"/><feComposite in2="hardAlpha" operator="out"/><feColorMatrix type="matrix" values="0 0 0 0 0.0745098 0 0 0 0 0.905882 0 0 0 0 0.862745 0 0 0 0.14 0"/><feBlend in2="effect1_dropShadow_230_1203" mode="normal" result="effect2_dropShadow_230_1203"/><feBlend in="SourceGraphic" in2="effect2_dropShadow_230_1203" mode="normal" result="shape"/><feColorMatrix in="SourceAlpha" result="hardAlpha" type="matrix" values="0 0 0 0 0 0 0 0 0 0 0 0 0 0 0 0 0 0 127 0"/><feOffset dx="-7" dy="-9"/><feGaussianBlur stdDeviation="13.5"/><feComposite in2="hardAlpha" k2="-1" k3="1" operator="arithmetic"/><feColorMatrix type="matrix" values="0 0 0 0 0 0 0 0 0 0 0 0 0 0 0 0 0 0 0.29 0"/><feBlend in2="shape" mode="normal" result="effect3_innerShadow_230_1203"/></filter><filter id="filter1_dii_230_1203" width="427" height="421" x="138" y="135" color-interpolation-filters="sRGB" filterUnits="userSpaceOnUse"><feFlood flood-opacity="0" result="BackgroundImageFix"/><feColorMatrix in="SourceAlpha" result="hardAlpha" type="matrix" values="0 0 0 0 0 0 0 0 0 0 0 0 0 0 0 0 0 0 127 0"/><feOffset dx="-4" dy="-4"/><feGaussianBlur stdDeviation="9.5"/><feComposite in2="hardAlpha" operator="out"/><feColorMatrix type="matrix" values="0 0 0 0 0 0 0 0 0 0 0 0 0 0 0 0 0 0 0.24 0"/><feBlend in2="BackgroundImageFix" mode="normal" result="effect1_dropShadow_230_1203"/><feBlend in="SourceGraphic" in2="effect1_dropShadow_230_1203" mode="normal" result="shape"/><feColorMatrix in="SourceAlpha" result="hardAlpha" type="matrix" values="0 0 0 0 0 0 0 0 0 0 0 0 0 0 0 0 0 0 127 0"/><feOffset dx="-29" dy="-11"/><feGaussianBlur stdDeviation="35.5"/><feComposite in2="hardAlpha" k2="-1" k3="1" operator="arithmetic"/><feColorMatrix type="matrix" values="0 0 0 0 0.0784314 0 0 0 0 0.905882 0 0 0 0 0.866667 0 0 0 0.19 0"/><feBlend in2="shape" mode="normal" result="effect2_innerShadow_230_1203"/><feColorMatrix in="SourceAlpha" result="hardAlpha" type="matrix" values="0 0 0 0 0 0 0 0 0 0 0 0 0 0 0 0 0 0 127 0"/><feOffset dx="13" dy="15"/><feGaussianBlur stdDeviation="18"/><feComposite in2="hardAlpha" k2="-1" k3="1" operator="arithmetic"/><feColorMatrix type="matrix" values="0 0 0 0 0.886275 0 0 0 0 0.160784 0 0 0 0 0.517647 0 0 0 0.19 0"/><feBlend in2="effect2_innerShadow_230_1203" mode="normal" result="effect3_innerShadow_230_1203"/></filter><filter id="filter2_d_230_1203" width="307.123" height="396.267" x="208.904" y="151.4" color-interpolation-filters="sRGB" filterUnits="userSpaceOnUse"><feFlood flood-opacity="0" result="BackgroundImageFix"/><feColorMatrix in="SourceAlpha" result="hardAlpha" type="matrix" values="0 0 0 0 0 0 0 0 0 0 0 0 0 0 0 0 0 0 127 0"/><feOffset dy="4"/><feGaussianBlur stdDeviation="2"/><feComposite in2="hardAlpha" operator="out"/><feColorMatrix type="matrix" values="0 0 0 0 0 0 0 0 0 0 0 0 0 0 0 0 0 0 0.08 0"/><feBlend in2="BackgroundImageFix" mode="normal" result="effect1_dropShadow_230_1203"/><feBlend in="SourceGraphic" in2="effect1_dropShadow_230_1203" mode="normal" result="shape"/></filter><filter id="filter3_d_230_1203" width="114" height="36" x="235" y="130" color-interpolation-filters="sRGB" filterUnits="userSpaceOnUse"><feFlood flood-opacity="0" result="BackgroundImageFix"/><feColorMatrix in="SourceAlpha" result="hardAlpha" type="matrix" values="0 0 0 0 0 0 0 0 0 0 0 0 0 0 0 0 0 0 127 0"/><feOffset dy="4"/><feGaussianBlur stdDeviation="2"/><feComposite in2="hardAlpha" operator="out"/><feColorMatrix type="matrix" values="0 0 0 0 0 0 0 0 0 0 0 0 0 0 0 0 0 0 0.25 0"/><feBlend in2="BackgroundImageFix" mode="normal" result="effect1_dropShadow_230_1203"/><feBlend in="SourceGraphic" in2="effect1_dropShadow_230_1203" mode="normal" result="shape"/></filter><linearGradient id="paint0_linear_230_1203" x1="176.257" x2="472.41" y1="131.59" y2="573.838" gradientUnits="userSpaceOnUse"><stop stop-color="#F4187D"/><stop offset=".99" stop-color="#05F4E3"/></linearGradient></defs></svg>