<svg width="522" height="396" viewBox="0 0 522 396" fill="none" xmlns="http://www.w3.org/2000/svg">
<g filter="url(#filter0_d_348_15)">
<rect x="83" y="79" width="230" height="230" rx="40" fill="white"/>
</g>
<rect x="80.5" y="76.5" width="6" height="6" stroke="#1AE5DD"/>
<rect x="80.5" y="305.5" width="6" height="6" stroke="#8297BB"/>
<rect x="309.5" y="305.5" width="6" height="6" stroke="#F44196"/>
<rect x="309.5" y="76.5" width="6" height="6" stroke="#8694BA"/>
<rect x="98.5" y="94.5" width="6" height="6" rx="3" stroke="#24DDDA"/>
<rect x="291.5" y="94.5" width="6" height="6" rx="3" stroke="#8694BA"/>
<rect x="291.5" y="287.5" width="6" height="6" rx="3" stroke="#F44196"/>
<rect x="98.5" y="287.5" width="6" height="6" rx="3" stroke="#8297BB"/>
<g filter="url(#filter1_d_348_15)">
<path fill-rule="evenodd" clip-rule="evenodd" d="M492.916 243.309C489.301 244.532 486.698 247.952 486.698 251.98C486.698 257.035 490.795 261.132 495.849 261.132C500.903 261.132 505 257.035 505 251.98C505 247.327 501.527 243.485 497.032 242.905C493.905 207.259 478.344 173.675 452.842 148.174C424.174 119.505 385.291 103.399 344.748 103.399C304.205 103.399 265.322 119.505 236.653 148.174C210.049 174.778 194.264 210.179 192.128 247.54C188.56 248.788 186 252.185 186 256.18C186 261.234 190.097 265.331 195.151 265.331C200.205 265.331 204.303 261.234 204.303 256.18C204.303 251.713 201.102 247.994 196.869 247.19C199.142 211.234 214.433 177.205 240.059 151.579C267.902 123.736 305.665 108.094 345.041 108.094C384.417 108.094 422.18 123.736 450.023 151.579C474.725 176.281 489.824 208.792 492.916 243.309Z" fill="white"/>
</g>
<path d="M334.685 189.238L357.008 189.238C357.98 189.231 358.91 188.841 359.597 188.154C360.284 187.467 360.673 186.538 360.68 185.566L360.68 177.41L366.578 164.429C366.843 163.844 366.95 163.2 366.887 162.561C366.824 161.922 366.594 161.311 366.22 160.79L349.356 137.167C349.244 137.005 349.083 136.884 348.896 136.821C348.71 136.758 348.509 136.757 348.321 136.817C348.134 136.877 347.971 136.995 347.856 137.155C347.741 137.314 347.68 137.506 347.683 137.703L347.699 155.591C348.967 155.917 350.123 156.58 351.046 157.508C352.074 158.536 352.774 159.846 353.058 161.272C353.342 162.699 353.196 164.177 352.64 165.52C352.083 166.864 351.141 168.012 349.932 168.82C348.723 169.628 347.301 170.059 345.847 170.059C344.393 170.059 342.971 169.628 341.762 168.82C340.553 168.012 339.611 166.864 339.054 165.52C338.498 164.177 338.352 162.699 338.636 161.272C338.919 159.846 339.62 158.536 340.648 157.508C341.571 156.58 342.727 155.917 343.995 155.591L344.011 137.703C344.013 137.506 343.953 137.314 343.838 137.155C343.723 136.995 343.56 136.877 343.372 136.817C343.185 136.757 342.984 136.758 342.797 136.821C342.611 136.884 342.45 137.005 342.338 137.167L325.457 160.773C325.089 161.301 324.864 161.916 324.805 162.556C324.745 163.197 324.852 163.842 325.116 164.429L331.014 177.41L331.014 185.566C331.011 186.049 331.104 186.527 331.288 186.974C331.472 187.421 331.742 187.826 332.084 188.168C332.425 188.509 332.831 188.78 333.277 188.963C333.724 189.147 334.203 189.24 334.685 189.238ZM334.685 178.84L357.008 178.84L357.008 185.566L334.685 185.566V178.84ZM343.247 160.107C343.762 159.593 344.417 159.243 345.13 159.101C345.843 158.959 346.582 159.032 347.254 159.31C347.925 159.589 348.5 160.06 348.904 160.664C349.308 161.269 349.523 161.98 349.523 162.707C349.523 163.434 349.308 164.145 348.904 164.749C348.5 165.354 347.925 165.825 347.254 166.103C346.582 166.381 345.843 166.454 345.13 166.312C344.417 166.171 343.762 165.82 343.247 165.306C342.558 164.617 342.171 163.682 342.171 162.707C342.171 161.732 342.558 160.797 343.247 160.107Z" fill="url(#paint0_linear_348_15)"/>
<rect x="337.5" y="97.5" width="17" height="17" stroke="black"/>
<rect x="83.5" y="79.5" width="229" height="229" stroke="url(#paint1_linear_348_15)"/>
<defs>
<filter id="filter0_d_348_15" x="0" y="0" width="396" height="396" filterUnits="userSpaceOnUse" color-interpolation-filters="sRGB">
<feFlood flood-opacity="0" result="BackgroundImageFix"/>
<feColorMatrix in="SourceAlpha" type="matrix" values="0 0 0 0 0 0 0 0 0 0 0 0 0 0 0 0 0 0 127 0" result="hardAlpha"/>
<feOffset dy="4"/>
<feGaussianBlur stdDeviation="41.5"/>
<feComposite in2="hardAlpha" operator="out"/>
<feColorMatrix type="matrix" values="0 0 0 0 0 0 0 0 0 0 0 0 0 0 0 0 0 0 0.04 0"/>
<feBlend mode="normal" in2="BackgroundImageFix" result="effect1_dropShadow_348_15"/>
<feBlend mode="normal" in="SourceGraphic" in2="effect1_dropShadow_348_15" result="shape"/>
</filter>
<filter id="filter1_d_348_15" x="169" y="90.3994" width="353" height="195.932" filterUnits="userSpaceOnUse" color-interpolation-filters="sRGB">
<feFlood flood-opacity="0" result="BackgroundImageFix"/>
<feColorMatrix in="SourceAlpha" type="matrix" values="0 0 0 0 0 0 0 0 0 0 0 0 0 0 0 0 0 0 127 0" result="hardAlpha"/>
<feOffset dy="4"/>
<feGaussianBlur stdDeviation="8.5"/>
<feComposite in2="hardAlpha" operator="out"/>
<feColorMatrix type="matrix" values="0 0 0 0 0 0 0 0 0 0 0 0 0 0 0 0 0 0 0.14 0"/>
<feBlend mode="normal" in2="BackgroundImageFix" result="effect1_dropShadow_348_15"/>
<feBlend mode="normal" in="SourceGraphic" in2="effect1_dropShadow_348_15" result="shape"/>
</filter>
<linearGradient id="paint0_linear_348_15" x1="362.907" y1="184.844" x2="328.773" y2="150.711" gradientUnits="userSpaceOnUse">
<stop stop-color="#20CFDB"/>
<stop offset="1" stop-color="#0A57E3"/>
</linearGradient>
<linearGradient id="paint1_linear_348_15" x1="75.5" y1="82.5" x2="313" y2="312.5" gradientUnits="userSpaceOnUse">
<stop stop-color="#12EADF"/>
<stop offset="1" stop-color="#F73E94"/>
</linearGradient>
</defs>
</svg>
