<svg xmlns="http://www.w3.org/2000/svg" width="49" height="49" fill="none" viewBox="0 0 49 49"><path fill="#000" d="M31.9688 24.2188C31.9688 25.7516 31.5142 27.2499 30.6626 28.5244C29.8111 29.7989 28.6007 30.7922 27.1845 31.3788C25.7684 31.9654 24.2102 32.1189 22.7068 31.8198C21.2034 31.5208 19.8225 30.7827 18.7387 29.6988C17.6548 28.615 16.9167 27.2341 16.6177 25.7307C16.3186 24.2273 16.4721 22.6691 17.0587 21.253C17.6453 19.8368 18.6386 18.6264 19.9131 17.7749C21.1876 16.9233 22.6859 16.4688 24.2188 16.4688C26.2722 16.4751 28.2397 17.2937 29.6918 18.7457C31.1438 20.1978 31.9624 22.1653 31.9688 24.2188ZM48.4375 13.5625V34.875C48.4375 38.472 47.0086 41.9217 44.4651 44.4651C41.9217 47.0086 38.472 48.4375 34.875 48.4375H13.5625C9.9655 48.4375 6.51583 47.0086 3.97236 44.4651C1.4289 41.9217 0 38.472 0 34.875V13.5625C0 9.9655 1.4289 6.51583 3.97236 3.97236C6.51583 1.4289 9.9655 0 13.5625 0H34.875C38.472 0 41.9217 1.4289 44.4651 3.97236C47.0086 6.51583 48.4375 9.9655 48.4375 13.5625ZM35.8438 24.2188C35.8438 21.9195 35.162 19.672 33.8846 17.7602C32.6072 15.8485 30.7916 14.3585 28.6674 13.4787C26.5433 12.5988 24.2059 12.3686 21.9508 12.8171C19.6958 13.2657 17.6244 14.3728 15.9986 15.9986C14.3728 17.6244 13.2657 19.6958 12.8171 21.9508C12.3686 24.2059 12.5988 26.5433 13.4787 28.6674C14.3585 30.7916 15.8485 32.6072 17.7602 33.8846C19.672 35.162 21.9195 35.8437 24.2188 35.8438C27.3019 35.8437 30.2588 34.619 32.4389 32.4389C34.619 30.2588 35.8438 27.3019 35.8438 24.2188ZM39.7188 11.625C39.7188 11.0502 39.5483 10.4883 39.229 10.0104C38.9096 9.53244 38.4557 9.15994 37.9247 8.93997C37.3936 8.72001 36.8093 8.66245 36.2455 8.77459C35.6818 8.88673 35.1639 9.16352 34.7575 9.56997C34.351 9.97642 34.0742 10.4943 33.9621 11.058C33.85 11.6218 33.9075 12.2061 34.1275 12.7372C34.3474 13.2682 34.7199 13.7221 35.1979 14.0415C35.6758 14.3608 36.2377 14.5312 36.8125 14.5312C37.5833 14.5312 38.3225 14.2251 38.8675 13.68C39.4126 13.135 39.7188 12.3958 39.7188 11.625Z"/></svg>