<svg xmlns="http://www.w3.org/2000/svg" width="472" height="25" fill="none" viewBox="0 0 472 25"><path fill="url(#paint0_linear_342_291)" fill-rule="evenodd" d="M11.62 0H12.75C19.1675 0 24.37 5.20245 24.37 11.62V13.27C24.37 19.6876 19.1675 24.89 12.75 24.89H11.62C5.20245 24.89 0 19.6876 0 13.27V11.62C0 5.20245 5.20245 0 11.62 0ZM43.6503 0H63.2703C69.8259 0 75.1403 5.31437 75.1403 11.87V13.02C75.1403 19.5756 69.8259 24.89 63.2703 24.89H43.6503C37.0947 24.89 31.7803 19.5756 31.7803 13.02V11.87C31.7803 5.31437 37.0947 0 43.6503 0ZM87.6698 0H87.2098C84.6362 0 82.5498 2.08633 82.5498 4.65997V20.23C82.5498 22.8036 84.6362 24.89 87.2098 24.89H87.6698C90.2434 24.89 92.3298 22.8036 92.3298 20.23V4.65997C92.3298 2.08633 90.2434 0 87.6698 0ZM107.36 0H108.14C112.631 0 116.27 3.63993 116.27 8.13V16.76C116.27 21.2501 112.631 24.89 108.14 24.89H107.36C102.87 24.89 99.2305 21.2501 99.2305 16.76V8.13C99.2305 3.63993 102.87 0 107.36 0Z" clip-rule="evenodd"/><path fill="#000" d="M146.459 22.8403C144.756 22.8403 143.131 22.5634 141.583 22.0097C140.057 21.4347 138.862 20.7 138 19.8056L138.763 18.5917C139.581 19.4222 140.676 20.1037 142.047 20.6361C143.44 21.1472 144.9 21.4028 146.426 21.4028C148.637 21.4028 150.307 20.9981 151.434 20.1889C152.562 19.3796 153.126 18.3255 153.126 17.0264C153.126 16.0255 152.828 15.2269 152.231 14.6306C151.633 14.0343 150.893 13.5764 150.008 13.2569C149.123 12.9375 147.929 12.6074 146.426 12.2667C144.723 11.862 143.352 11.4681 142.312 11.0847C141.295 10.7014 140.422 10.1157 139.692 9.32778C138.984 8.51852 138.63 7.44306 138.63 6.10139C138.63 5.01528 138.929 4.025 139.526 3.13056C140.123 2.21481 141.03 1.49074 142.246 0.958334C143.484 0.425926 145.021 0.159722 146.857 0.159722C148.139 0.159722 149.4 0.340741 150.638 0.702778C151.877 1.06482 152.949 1.55463 153.856 2.17222L153.226 3.48195C152.297 2.86435 151.269 2.39583 150.141 2.07639C149.035 1.75694 147.94 1.59722 146.857 1.59722C144.712 1.59722 143.086 2.0125 141.981 2.84305C140.875 3.67361 140.322 4.74907 140.322 6.06944C140.322 7.07037 140.621 7.86898 141.218 8.46528C141.815 9.06157 142.556 9.51944 143.44 9.83889C144.325 10.1583 145.53 10.4991 147.056 10.8611C148.759 11.2657 150.119 11.6597 151.136 12.0431C152.153 12.4264 153.016 13.012 153.723 13.8C154.453 14.5667 154.818 15.6102 154.818 16.9306C154.818 18.0167 154.508 19.0069 153.889 19.9014C153.292 20.7958 152.363 21.5093 151.103 22.0417C149.842 22.5741 148.294 22.8403 146.459 22.8403Z"/><path fill="#000" d="M174.037 0.319444C176.956 0.319444 179.245 0.990278 180.903 2.33194C182.562 3.65231 183.391 5.49444 183.391 7.85833C183.391 10.2009 182.562 12.0431 180.903 13.3847C179.245 14.7051 176.956 15.3653 174.037 15.3653H167.402V22.6806H165.711V0.319444H174.037ZM174.037 13.8958C176.513 13.8958 178.404 13.3741 179.709 12.3306C181.014 11.287 181.666 9.7963 181.666 7.85833C181.666 5.92037 181.014 4.42963 179.709 3.38611C178.404 2.3213 176.513 1.78889 174.037 1.78889H167.402V13.8958H174.037Z"/><path fill="#000" d="M210.262 21.2111V22.6806H194.241V0.319444H209.765V1.78889H195.932V10.6056H208.305V12.0431H195.932V21.2111H210.262Z"/><path fill="#000" d="M231.261 22.8403C228.984 22.8403 226.927 22.3505 225.091 21.3708C223.278 20.3912 221.841 19.0389 220.779 17.3139C219.74 15.5889 219.22 13.6509 219.22 11.5C219.22 9.34907 219.74 7.41111 220.779 5.68611C221.841 3.96111 223.278 2.6088 225.091 1.62917C226.927 0.649537 228.984 0.159722 231.261 0.159722C232.942 0.159722 234.49 0.425926 235.905 0.958334C237.321 1.46945 238.526 2.23611 239.521 3.25833L238.459 4.3125C236.602 2.54491 234.225 1.66111 231.328 1.66111C229.382 1.66111 227.612 2.08704 226.02 2.93889C224.428 3.79074 223.179 4.97269 222.272 6.48472C221.365 7.97546 220.912 9.64722 220.912 11.5C220.912 13.3528 221.365 15.0352 222.272 16.5472C223.179 18.038 224.428 19.2093 226.02 20.0611C227.612 20.913 229.382 21.3389 231.328 21.3389C234.202 21.3389 236.58 20.4444 238.459 18.6556L239.521 19.7097C238.526 20.7319 237.31 21.5093 235.872 22.0417C234.457 22.5741 232.92 22.8403 231.261 22.8403Z"/><path fill="#000" d="M254.482 1.78889H246.123V0.319444H264.533V1.78889H256.174V22.6806H254.482V1.78889Z"/><path fill="#000" d="M289.992 22.6806L284.452 15.2056C283.634 15.312 282.882 15.3653 282.196 15.3653H275.562V22.6806H273.87V0.319444H282.196C285.115 0.319444 287.404 0.990278 289.063 2.33194C290.721 3.65231 291.551 5.49444 291.551 7.85833C291.551 9.62593 291.075 11.1167 290.124 12.3306C289.195 13.5231 287.858 14.3644 286.111 14.8542L291.916 22.6806H289.992ZM282.196 13.9278C284.673 13.9278 286.564 13.406 287.869 12.3625C289.173 11.2977 289.826 9.7963 289.826 7.85833C289.826 5.92037 289.173 4.42963 287.869 3.38611C286.564 2.3213 284.673 1.78889 282.196 1.78889H275.562V13.9278H282.196Z"/><path fill="#000" d="M311.975 22.8403C309.034 22.8403 306.745 22.0204 305.109 20.3806C303.494 18.7407 302.687 16.3449 302.687 13.1931V0.319444H304.379V13.1292C304.379 15.8764 305.031 17.9315 306.336 19.2944C307.641 20.6574 309.532 21.3389 312.008 21.3389C314.463 21.3389 316.343 20.6574 317.648 19.2944C318.952 17.9315 319.605 15.8764 319.605 13.1292V0.319444H321.296V13.1931C321.296 16.3449 320.478 18.7407 318.842 20.3806C317.205 22.0204 314.916 22.8403 311.975 22.8403Z"/><path fill="#000" d="M356.291 22.6806L356.258 3.54583L346.539 19.7097H345.71L335.99 3.60972V22.6806H334.332V0.319444H335.758L346.141 17.6014L356.523 0.319444H357.917L357.95 22.6806H356.291Z"/><path fill="#000" d="M404.193 0.319444L396.497 22.6806H391.919L386.181 6.13333L380.342 22.6806H375.732L368.036 0.319444H372.514L378.286 17.3139L384.29 0.319444H388.27L394.142 17.4097L400.079 0.319444H404.193Z"/><path fill="#000" d="M412.847 0.319444H417.16V22.6806H412.847V0.319444Z"/><path fill="#000" d="M435.78 23C433.989 23 432.253 22.7551 430.572 22.2653C428.913 21.7755 427.598 21.1259 426.625 20.3167L428.117 17.0903C429.068 17.8144 430.229 18.4106 431.6 18.8792C432.993 19.3264 434.387 19.55 435.78 19.55C437.505 19.55 438.787 19.2838 439.628 18.7514C440.49 18.219 440.921 17.5162 440.921 16.6431C440.921 16.0042 440.678 15.4824 440.192 15.0778C439.727 14.6519 439.13 14.3218 438.4 14.0875C437.671 13.8532 436.676 13.587 435.415 13.2889C433.646 12.8843 432.208 12.4796 431.103 12.075C430.019 11.6704 429.079 11.0421 428.283 10.1903C427.509 9.31713 427.122 8.14583 427.122 6.67639C427.122 5.4412 427.465 4.32315 428.15 3.32222C428.858 2.3 429.909 1.49074 431.302 0.894444C432.717 0.298148 434.442 0 436.477 0C437.892 0 439.285 0.170371 440.656 0.511112C442.027 0.851852 443.21 1.34167 444.205 1.98056L442.845 5.20694C441.828 4.63194 440.767 4.19537 439.661 3.89722C438.555 3.59907 437.483 3.45 436.443 3.45C434.741 3.45 433.469 3.72685 432.629 4.28056C431.81 4.83426 431.401 5.56898 431.401 6.48472C431.401 7.12361 431.633 7.64537 432.098 8.05C432.584 8.45463 433.193 8.77407 433.922 9.00833C434.652 9.24259 435.647 9.5088 436.908 9.80694C438.633 10.1903 440.048 10.5949 441.154 11.0208C442.259 11.4255 443.199 12.0537 443.973 12.9056C444.769 13.7574 445.167 14.9074 445.167 16.3556C445.167 17.5907 444.814 18.7088 444.106 19.7097C443.42 20.7106 442.37 21.5093 440.955 22.1056C439.539 22.7019 437.814 23 435.78 23Z"/><path fill="#000" d="M472 19.1986V22.6806H454.585V0.319444H471.536V3.80139H458.897V9.61528H470.109V13.0333H458.897V19.1986H472Z"/><defs><linearGradient id="paint0_linear_342_291" x1="0" x2="116" y1="0" y2="25" gradientUnits="userSpaceOnUse"><stop stop-color="#22DCD9"/><stop offset="1" stop-color="#F73E94"/></linearGradient></defs></svg>