<svg xmlns="http://www.w3.org/2000/svg" width="1072" height="266" fill="none" viewBox="0 0 1072 266"><g filter="url(#filter0_d_230_1383)"><path fill="url(#paint0_linear_230_1383)" fill-rule="evenodd" d="M18 101C10.268 101 4 107.268 4 115C4 122.732 10.268 129 18 129H96C103.732 129 110 122.732 110 115C110 107.268 103.732 101 96 101H18ZM129.098 109.236C129.402 109.388 129.666 109.609 129.87 109.88L133.151 114.255C133.435 114.634 133.589 115.094 133.589 115.568C133.589 116.041 133.435 116.502 133.151 116.88L129.87 121.255C129.666 121.527 129.402 121.747 129.098 121.899C128.794 122.051 128.459 122.13 128.12 122.13L120.099 122.13C119.519 122.13 118.962 121.9 118.552 121.49C118.142 121.079 117.911 120.523 117.911 119.943V111.193C117.911 110.613 118.142 110.056 118.552 109.646C118.962 109.236 119.519 109.005 120.099 109.005L128.12 109.005C128.459 109.005 128.794 109.084 129.098 109.236Z" clip-rule="evenodd"/></g><path fill="#fff" d="M41.834 111.2H42.548V121H41.834V111.2ZM46.4109 115.288C46.6349 114.756 46.9849 114.35 47.4609 114.07C47.9369 113.781 48.5155 113.636 49.1969 113.636V114.322L49.0289 114.308C48.2169 114.308 47.5822 114.565 47.1249 115.078C46.6675 115.582 46.4389 116.287 46.4389 117.192V121H45.7389V113.692H46.4109V115.288ZM51.1256 113.692H51.8256V121H51.1256V113.692ZM51.4756 111.914C51.3169 111.914 51.1816 111.863 51.0696 111.76C50.9576 111.648 50.9016 111.513 50.9016 111.354C50.9016 111.195 50.9576 111.06 51.0696 110.948C51.1816 110.836 51.3169 110.78 51.4756 110.78C51.6343 110.78 51.7696 110.836 51.8816 110.948C51.9936 111.051 52.0496 111.181 52.0496 111.34C52.0496 111.499 51.9936 111.634 51.8816 111.746C51.7696 111.858 51.6343 111.914 51.4756 111.914ZM58.346 113.636C59.2607 113.636 59.984 113.902 60.516 114.434C61.048 114.966 61.314 115.731 61.314 116.73V121H60.614V116.786C60.614 115.965 60.404 115.339 59.984 114.91C59.5733 114.481 58.9947 114.266 58.248 114.266C57.3893 114.266 56.7127 114.523 56.218 115.036C55.7233 115.549 55.476 116.24 55.476 117.108V121H54.776V113.692H55.448V115.274C55.7 114.761 56.0733 114.359 56.568 114.07C57.072 113.781 57.6647 113.636 58.346 113.636ZM66.6599 113.636C67.5652 113.636 68.2606 113.869 68.7459 114.336C69.2312 114.793 69.4739 115.47 69.4739 116.366V121H68.8019V119.698C68.5686 120.127 68.2279 120.463 67.7799 120.706C67.3319 120.939 66.7952 121.056 66.1699 121.056C65.3579 121.056 64.7139 120.865 64.2379 120.482C63.7712 120.099 63.5379 119.595 63.5379 118.97C63.5379 118.363 63.7526 117.873 64.1819 117.5C64.6206 117.117 65.3159 116.926 66.2679 116.926H68.7739V116.338C68.7739 115.657 68.5872 115.139 68.2139 114.784C67.8499 114.429 67.3132 114.252 66.6039 114.252C66.1186 114.252 65.6519 114.336 65.2039 114.504C64.7652 114.672 64.3919 114.896 64.0839 115.176L63.7339 114.672C64.0979 114.345 64.5366 114.093 65.0499 113.916C65.5632 113.729 66.0999 113.636 66.6599 113.636ZM66.2679 120.482C66.8746 120.482 67.3879 120.342 67.8079 120.062C68.2372 119.782 68.5592 119.376 68.7739 118.844V117.472H66.2819C65.5632 117.472 65.0406 117.603 64.7139 117.864C64.3966 118.125 64.2379 118.485 64.2379 118.942C64.2379 119.418 64.4152 119.796 64.7699 120.076C65.1246 120.347 65.6239 120.482 66.2679 120.482Z"/><g filter="url(#filter1_d_230_1383)"><path fill="url(#paint1_linear_230_1383)" fill-rule="evenodd" d="M820.112 227.066C820.005 226.744 819.974 226.402 820.022 226.065L820.795 220.652C820.862 220.183 821.079 219.749 821.414 219.414C821.749 219.079 822.183 218.862 822.652 218.795L828.065 218.022C828.402 217.974 828.744 218.005 829.066 218.112C829.389 218.22 829.681 218.401 829.921 218.641L835.593 224.312C836.003 224.723 836.234 225.279 836.234 225.859C836.234 226.439 836.003 226.996 835.593 227.406L829.406 233.593C828.996 234.003 828.439 234.234 827.859 234.234C827.279 234.234 826.723 234.003 826.312 233.593L820.641 227.921C820.401 227.681 820.22 227.389 820.112 227.066ZM845.712 229.454C837.98 229.454 831.712 235.722 831.712 243.454C831.712 251.186 837.98 257.454 845.712 257.454H923.712C931.444 257.454 937.712 251.186 937.712 243.454C937.712 235.722 931.444 229.454 923.712 229.454H845.712Z" clip-rule="evenodd"/></g><path fill="#fff" d="M867.004 248.523C866.043 248.523 865.175 248.309 864.4 247.879C863.635 247.45 863.028 246.857 862.58 246.101C862.142 245.345 861.922 244.496 861.922 243.553C861.922 242.611 862.142 241.761 862.58 241.005C863.028 240.249 863.635 239.657 864.4 239.227C865.175 238.798 866.043 238.583 867.004 238.583C867.714 238.583 868.367 238.7 868.964 238.933C869.562 239.157 870.07 239.493 870.49 239.941L870.042 240.403C869.258 239.629 868.255 239.241 867.032 239.241C866.211 239.241 865.464 239.428 864.792 239.801C864.12 240.175 863.593 240.693 863.21 241.355C862.828 242.009 862.636 242.741 862.636 243.553C862.636 244.365 862.828 245.103 863.21 245.765C863.593 246.419 864.12 246.932 864.792 247.305C865.464 247.679 866.211 247.865 867.032 247.865C868.246 247.865 869.249 247.473 870.042 246.689L870.49 247.151C870.07 247.599 869.557 247.94 868.95 248.173C868.353 248.407 867.704 248.523 867.004 248.523ZM878.49 244.967H872.204C872.223 245.537 872.367 246.045 872.638 246.493C872.909 246.932 873.273 247.273 873.73 247.515C874.197 247.758 874.719 247.879 875.298 247.879C875.774 247.879 876.213 247.795 876.614 247.627C877.025 247.45 877.365 247.193 877.636 246.857L878.042 247.319C877.725 247.702 877.323 247.996 876.838 248.201C876.362 248.407 875.844 248.509 875.284 248.509C874.556 248.509 873.907 248.351 873.338 248.033C872.769 247.716 872.321 247.277 871.994 246.717C871.677 246.157 871.518 245.518 871.518 244.799C871.518 244.09 871.667 243.455 871.966 242.895C872.274 242.326 872.694 241.883 873.226 241.565C873.758 241.248 874.355 241.089 875.018 241.089C875.681 241.089 876.273 241.248 876.796 241.565C877.328 241.873 877.743 242.307 878.042 242.867C878.35 243.427 878.504 244.062 878.504 244.771L878.49 244.967ZM875.018 241.705C874.505 241.705 874.043 241.822 873.632 242.055C873.221 242.279 872.89 242.601 872.638 243.021C872.395 243.432 872.255 243.899 872.218 244.421H877.818C877.79 243.899 877.65 243.432 877.398 243.021C877.146 242.611 876.815 242.289 876.404 242.055C875.993 241.822 875.531 241.705 875.018 241.705ZM876.166 238.303H877.174L874.976 239.955H874.22L876.166 238.303ZM880.67 238.065H881.37V248.453H880.67V238.065ZM884.32 241.145H885.02V248.453H884.32V241.145ZM884.67 239.367C884.511 239.367 884.376 239.316 884.264 239.213C884.152 239.101 884.096 238.966 884.096 238.807C884.096 238.649 884.152 238.513 884.264 238.401C884.376 238.289 884.511 238.233 884.67 238.233C884.829 238.233 884.964 238.289 885.076 238.401C885.188 238.504 885.244 238.635 885.244 238.793C885.244 238.952 885.188 239.087 885.076 239.199C884.964 239.311 884.829 239.367 884.67 239.367ZM891.54 241.089C892.455 241.089 893.178 241.355 893.71 241.887C894.242 242.419 894.508 243.185 894.508 244.183V248.453H893.808V244.239C893.808 243.418 893.598 242.793 893.178 242.363C892.768 241.934 892.189 241.719 891.442 241.719C890.584 241.719 889.907 241.976 889.412 242.489C888.918 243.003 888.67 243.693 888.67 244.561V248.453H887.97V241.145H888.642V242.727C888.894 242.214 889.268 241.813 889.762 241.523C890.266 241.234 890.859 241.089 891.54 241.089ZM903.578 244.967H897.292C897.311 245.537 897.455 246.045 897.726 246.493C897.997 246.932 898.361 247.273 898.818 247.515C899.285 247.758 899.807 247.879 900.386 247.879C900.862 247.879 901.301 247.795 901.702 247.627C902.113 247.45 902.453 247.193 902.724 246.857L903.13 247.319C902.813 247.702 902.411 247.996 901.926 248.201C901.45 248.407 900.932 248.509 900.372 248.509C899.644 248.509 898.995 248.351 898.426 248.033C897.857 247.716 897.409 247.277 897.082 246.717C896.765 246.157 896.606 245.518 896.606 244.799C896.606 244.09 896.755 243.455 897.054 242.895C897.362 242.326 897.782 241.883 898.314 241.565C898.846 241.248 899.443 241.089 900.106 241.089C900.769 241.089 901.361 241.248 901.884 241.565C902.416 241.873 902.831 242.307 903.13 242.867C903.438 243.427 903.592 244.062 903.592 244.771L903.578 244.967ZM900.106 241.705C899.593 241.705 899.131 241.822 898.72 242.055C898.309 242.279 897.978 242.601 897.726 243.021C897.483 243.432 897.343 243.899 897.306 244.421H902.906C902.878 243.899 902.738 243.432 902.486 243.021C902.234 242.611 901.903 242.289 901.492 242.055C901.081 241.822 900.619 241.705 900.106 241.705Z"/><g filter="url(#filter2_d_230_1383)"><path fill="url(#paint2_linear_230_1383)" fill-rule="evenodd" d="M975.611 0C967.879 0 961.611 6.26801 961.611 14C961.611 21.732 967.879 28 975.611 28H1053.61C1061.34 28 1067.61 21.732 1067.61 14C1067.61 6.26801 1061.34 0 1053.61 0H975.611ZM960.819 43.0482C960.509 43.1856 960.17 43.2489 959.831 43.233L954.368 42.9767C953.896 42.9545 953.443 42.7796 953.078 42.4782C952.713 42.1767 952.456 41.7651 952.345 41.305L951.061 35.989C950.981 35.6589 950.98 35.3148 951.056 34.9839C951.132 34.6529 951.285 34.3444 951.501 34.0825L956.609 27.8985C956.978 27.4512 957.51 27.1689 958.088 27.1139C958.665 27.0589 959.241 27.2355 959.689 27.605L966.435 33.1773C966.882 33.5467 967.164 34.0788 967.219 34.6563C967.274 35.2339 967.098 35.8096 966.728 36.2569L961.62 42.441C961.404 42.7028 961.13 42.9107 960.819 43.0482Z" clip-rule="evenodd"/></g><path fill="#fff" d="M1005.98 9.2V19H1005.39L998.717 10.488V19H998.003V9.2H998.605L1005.27 17.712V9.2H1005.98ZM1009.18 11.692H1009.88V19H1009.18V11.692ZM1009.53 9.914C1009.37 9.914 1009.24 9.86267 1009.13 9.76C1009.01 9.648 1008.96 9.51267 1008.96 9.354C1008.96 9.19533 1009.01 9.06 1009.13 8.948C1009.24 8.836 1009.37 8.78 1009.53 8.78C1009.69 8.78 1009.83 8.836 1009.94 8.948C1010.05 9.05067 1010.11 9.18133 1010.11 9.34C1010.11 9.49867 1010.05 9.634 1009.94 9.746C1009.83 9.858 1009.69 9.914 1009.53 9.914ZM1014.68 19.056C1014.09 19.056 1013.53 18.9673 1013 18.79C1012.47 18.6127 1012.05 18.3887 1011.75 18.118L1012.08 17.558C1012.37 17.81 1012.76 18.02 1013.22 18.188C1013.7 18.356 1014.19 18.44 1014.71 18.44C1015.44 18.44 1015.99 18.3187 1016.33 18.076C1016.69 17.8333 1016.86 17.4973 1016.86 17.068C1016.86 16.76 1016.77 16.5173 1016.57 16.34C1016.38 16.1627 1016.15 16.032 1015.87 15.948C1015.59 15.864 1015.2 15.7753 1014.71 15.682C1014.13 15.5793 1013.66 15.4673 1013.31 15.346C1012.95 15.2247 1012.65 15.0287 1012.4 14.758C1012.15 14.4873 1012.02 14.114 1012.02 13.638C1012.02 13.0593 1012.26 12.5833 1012.73 12.21C1013.22 11.8273 1013.9 11.636 1014.79 11.636C1015.26 11.636 1015.72 11.7013 1016.18 11.832C1016.63 11.9627 1017.01 12.1353 1017.3 12.35L1016.98 12.91C1016.68 12.6953 1016.34 12.532 1015.95 12.42C1015.57 12.308 1015.18 12.252 1014.78 12.252C1014.1 12.252 1013.58 12.378 1013.24 12.63C1012.89 12.882 1012.72 13.2133 1012.72 13.624C1012.72 13.9507 1012.82 14.2073 1013.01 14.394C1013.21 14.5713 1013.45 14.7067 1013.73 14.8C1014.02 14.884 1014.42 14.9773 1014.93 15.08C1015.5 15.1827 1015.96 15.2947 1016.3 15.416C1016.66 15.528 1016.96 15.7147 1017.2 15.976C1017.44 16.2373 1017.56 16.5967 1017.56 17.054C1017.56 17.6607 1017.31 18.146 1016.81 18.51C1016.3 18.874 1015.59 19.056 1014.68 19.056ZM1021.98 11.636C1022.89 11.636 1023.58 11.8693 1024.07 12.336C1024.55 12.7933 1024.8 13.47 1024.8 14.366V19H1024.12V17.698C1023.89 18.1273 1023.55 18.4633 1023.1 18.706C1022.65 18.9393 1022.12 19.056 1021.49 19.056C1020.68 19.056 1020.04 18.8647 1019.56 18.482C1019.09 18.0993 1018.86 17.5953 1018.86 16.97C1018.86 16.3633 1019.07 15.8733 1019.5 15.5C1019.94 15.1173 1020.64 14.926 1021.59 14.926H1024.1V14.338C1024.1 13.6567 1023.91 13.1387 1023.54 12.784C1023.17 12.4293 1022.63 12.252 1021.93 12.252C1021.44 12.252 1020.97 12.336 1020.53 12.504C1020.09 12.672 1019.71 12.896 1019.41 13.176L1019.06 12.672C1019.42 12.3453 1019.86 12.0933 1020.37 11.916C1020.88 11.7293 1021.42 11.636 1021.98 11.636ZM1021.59 18.482C1022.2 18.482 1022.71 18.342 1023.13 18.062C1023.56 17.782 1023.88 17.376 1024.1 16.844V15.472H1021.6C1020.88 15.472 1020.36 15.6027 1020.04 15.864C1019.72 16.1253 1019.56 16.4847 1019.56 16.942C1019.56 17.418 1019.74 17.796 1020.09 18.076C1020.45 18.3467 1020.95 18.482 1021.59 18.482ZM1028.35 13.288C1028.58 12.756 1028.93 12.35 1029.4 12.07C1029.88 11.7807 1030.46 11.636 1031.14 11.636V12.322L1030.97 12.308C1030.16 12.308 1029.52 12.5647 1029.07 13.078C1028.61 13.582 1028.38 14.2867 1028.38 15.192V19H1027.68V11.692H1028.35V13.288Z"/><defs><filter id="filter0_d_230_1383" width="137.589" height="36" x="0" y="101" color-interpolation-filters="sRGB" filterUnits="userSpaceOnUse"><feFlood flood-opacity="0" result="BackgroundImageFix"/><feColorMatrix in="SourceAlpha" result="hardAlpha" type="matrix" values="0 0 0 0 0 0 0 0 0 0 0 0 0 0 0 0 0 0 127 0"/><feOffset dy="4"/><feGaussianBlur stdDeviation="2"/><feComposite in2="hardAlpha" operator="out"/><feColorMatrix type="matrix" values="0 0 0 0 0.133333 0 0 0 0 0.862745 0 0 0 0 0.85098 0 0 0 0.1 0"/><feBlend in2="BackgroundImageFix" mode="normal" result="effect1_dropShadow_230_1383"/><feBlend in="SourceGraphic" in2="effect1_dropShadow_230_1383" mode="normal" result="shape"/></filter><filter id="filter1_d_230_1383" width="125.713" height="47.454" x="816" y="218" color-interpolation-filters="sRGB" filterUnits="userSpaceOnUse"><feFlood flood-opacity="0" result="BackgroundImageFix"/><feColorMatrix in="SourceAlpha" result="hardAlpha" type="matrix" values="0 0 0 0 0 0 0 0 0 0 0 0 0 0 0 0 0 0 127 0"/><feOffset dy="4"/><feGaussianBlur stdDeviation="2"/><feComposite in2="hardAlpha" operator="out"/><feColorMatrix type="matrix" values="0 0 0 0 0.819608 0 0 0 0 0.223529 0 0 0 0 0.54902 0 0 0 0.1 0"/><feBlend in2="BackgroundImageFix" mode="normal" result="effect1_dropShadow_230_1383"/><feBlend in="SourceGraphic" in2="effect1_dropShadow_230_1383" mode="normal" result="shape"/></filter><filter id="filter2_d_230_1383" width="124.61" height="51.235" x="947" y="0" color-interpolation-filters="sRGB" filterUnits="userSpaceOnUse"><feFlood flood-opacity="0" result="BackgroundImageFix"/><feColorMatrix in="SourceAlpha" result="hardAlpha" type="matrix" values="0 0 0 0 0 0 0 0 0 0 0 0 0 0 0 0 0 0 127 0"/><feOffset dy="4"/><feGaussianBlur stdDeviation="2"/><feComposite in2="hardAlpha" operator="out"/><feColorMatrix type="matrix" values="0 0 0 0 0.133333 0 0 0 0 0.862745 0 0 0 0 0.85098 0 0 0 0.1 0"/><feBlend in2="BackgroundImageFix" mode="normal" result="effect1_dropShadow_230_1383"/><feBlend in="SourceGraphic" in2="effect1_dropShadow_230_1383" mode="normal" result="shape"/></filter><linearGradient id="paint0_linear_230_1383" x1="10.5" x2="107" y1="106.5" y2="129" gradientUnits="userSpaceOnUse"><stop stop-color="#0987E2"/><stop offset="1" stop-color="#F13F95"/></linearGradient><linearGradient id="paint1_linear_230_1383" x1="838.213" x2="934.713" y1="234.953" y2="257.453" gradientUnits="userSpaceOnUse"><stop stop-color="#F73E94"/><stop offset="1" stop-color="#42429A"/></linearGradient><linearGradient id="paint2_linear_230_1383" x1="968.111" x2="1064.61" y1="5.5" y2="28" gradientUnits="userSpaceOnUse"><stop stop-color="#0956E2"/><stop offset="1" stop-color="#22DCD9"/></linearGradient></defs></svg>