<svg width="398" height="569" viewBox="0 0 398 569" fill="none" xmlns="http://www.w3.org/2000/svg">
<g filter="url(#filter0_d_230_1275)">
<rect x="83.7422" y="79" width="230.286" height="403" rx="40" fill="white"/>
</g>
<rect x="147.154" y="467.816" width="104.296" height="5.00621" rx="2.50311" fill="#D9D9D9"/>
<rect x="116.283" y="167.443" width="104.296" height="10.0124" rx="5.00621" fill="#EBEBEB"/>
<rect x="116.283" y="299.273" width="104.296" height="10.0124" rx="5.00621" fill="#EBEBEB"/>
<rect x="116.283" y="318.464" width="164.371" height="6.67495" rx="3.33747" fill="#EBEBEB"/>
<rect x="116.283" y="333.482" width="164.371" height="6.67495" rx="3.33747" fill="#EBEBEB"/>
<rect x="116.283" y="349.335" width="164.371" height="6.67495" rx="3.33747" fill="#EBEBEB"/>
<rect x="117.117" y="365.188" width="164.371" height="6.67495" rx="3.33747" fill="#EBEBEB"/>
<circle cx="272.31" cy="117.381" r="11.6812" fill="#B1AAAA"/>
<rect x="116.283" y="195.812" width="75.9275" height="75.9275" rx="12" fill="#B1AAAA"/>
<rect x="208.063" y="195.812" width="75.9275" height="75.9275" rx="12" fill="#B1AAAA"/>
<path d="M295.672 207.812C295.672 201.184 301.044 195.812 307.672 195.812H314.028V271.739H307.672C301.044 271.739 295.672 266.367 295.672 259.739V207.812Z" fill="#B1AAAA"/>
<g filter="url(#filter1_d_230_1275)">
<path fill-rule="evenodd" clip-rule="evenodd" d="M33.6812 130.731C27.2298 130.731 22 135.961 22 142.412C22 148.863 27.2298 154.093 33.6811 154.093H98.7619C105.213 154.093 110.443 148.863 110.443 142.412C110.443 135.961 105.213 130.731 98.7619 130.731H33.6812ZM116.716 161.998C116.733 162.281 116.684 162.564 116.572 162.825L114.78 167.021C114.625 167.384 114.356 167.687 114.014 167.885C113.672 168.082 113.275 168.163 112.883 168.116L108.353 167.57C108.072 167.536 107.802 167.437 107.566 167.281C107.329 167.125 107.132 166.916 106.991 166.671L103.644 160.875C103.402 160.456 103.337 159.958 103.462 159.49C103.587 159.022 103.893 158.624 104.313 158.382L110.635 154.731C111.054 154.489 111.553 154.424 112.02 154.549C112.488 154.674 112.886 154.98 113.128 155.399L116.475 161.195C116.616 161.441 116.699 161.716 116.716 161.998Z" fill="url(#paint0_linear_230_1275)"/>
</g>
<path d="M52.6831 138.2V148H52.0951L45.4171 139.488V148H44.7031V138.2H45.3051L51.9691 146.712V138.2H52.6831ZM56.1055 138.2H56.8195V148H56.1055V138.2ZM62.8104 148.07C62.0917 148.07 61.4057 147.949 60.7524 147.706C60.1084 147.454 59.6044 147.132 59.2404 146.74L59.5624 146.208C59.9077 146.572 60.3697 146.871 60.9484 147.104C61.5364 147.328 62.1524 147.44 62.7964 147.44C63.7297 147.44 64.4344 147.263 64.9104 146.908C65.3864 146.553 65.6244 146.091 65.6244 145.522C65.6244 145.083 65.4984 144.733 65.2464 144.472C64.9944 144.211 64.6817 144.01 64.3084 143.87C63.935 143.73 63.431 143.585 62.7964 143.436C62.0777 143.259 61.499 143.086 61.0604 142.918C60.631 142.75 60.2624 142.493 59.9544 142.148C59.6557 141.793 59.5064 141.322 59.5064 140.734C59.5064 140.258 59.6324 139.824 59.8844 139.432C60.1364 139.031 60.519 138.713 61.0324 138.48C61.555 138.247 62.2037 138.13 62.9784 138.13C63.5197 138.13 64.0517 138.209 64.5744 138.368C65.097 138.527 65.5497 138.741 65.9324 139.012L65.6664 139.586C65.2744 139.315 64.8404 139.11 64.3644 138.97C63.8977 138.83 63.4357 138.76 62.9784 138.76C62.073 138.76 61.387 138.942 60.9204 139.306C60.4537 139.67 60.2204 140.141 60.2204 140.72C60.2204 141.159 60.3464 141.509 60.5984 141.77C60.8504 142.031 61.163 142.232 61.5364 142.372C61.9097 142.512 62.4184 142.661 63.0624 142.82C63.781 142.997 64.355 143.17 64.7844 143.338C65.2137 143.506 65.5777 143.763 65.8764 144.108C66.1844 144.444 66.3384 144.901 66.3384 145.48C66.3384 145.956 66.2077 146.39 65.9464 146.782C65.6944 147.174 65.3024 147.487 64.7704 147.72C64.2384 147.953 63.585 148.07 62.8104 148.07ZM74.8276 145.242H69.1436L67.8976 148H67.1276L71.6356 138.2H72.3496L76.8576 148H76.0876L74.8276 145.242ZM74.5616 144.64L71.9856 138.984L69.4236 144.64H74.5616ZM85.4407 148L83.1027 144.724C82.7574 144.771 82.44 144.794 82.1507 144.794H79.3507V148H78.6367V138.2H82.1507C83.3827 138.2 84.3487 138.494 85.0487 139.082C85.7487 139.661 86.0987 140.468 86.0987 141.504C86.0987 142.279 85.898 142.932 85.4967 143.464C85.1047 143.987 84.54 144.355 83.8027 144.57L86.2527 148H85.4407ZM82.1507 144.164C83.196 144.164 83.994 143.935 84.5447 143.478C85.0954 143.011 85.3707 142.353 85.3707 141.504C85.3707 140.655 85.0954 140.001 84.5447 139.544C83.994 139.077 83.196 138.844 82.1507 138.844H79.3507V144.164H82.1507Z" fill="white"/>
<g filter="url(#filter2_d_230_1275)">
<path fill-rule="evenodd" clip-rule="evenodd" d="M281.581 386.937C281.491 386.669 281.466 386.383 281.506 386.102L282.151 381.585C282.207 381.194 282.388 380.832 282.667 380.553C282.946 380.273 283.309 380.092 283.7 380.036L288.217 379.391C288.497 379.351 288.783 379.377 289.052 379.466C289.321 379.556 289.565 379.707 289.765 379.907L294.498 384.639C294.84 384.982 295.032 385.446 295.032 385.93C295.032 386.414 294.84 386.878 294.498 387.221L289.335 392.383C288.993 392.725 288.529 392.918 288.045 392.918C287.561 392.918 287.096 392.725 286.754 392.383L282.022 387.651C281.822 387.45 281.671 387.206 281.581 386.937ZM302.941 388.929C296.49 388.929 291.26 394.159 291.26 400.61C291.26 407.062 296.49 412.292 302.941 412.292H368.022C374.473 412.292 379.703 407.062 379.703 400.61C379.703 394.159 374.473 388.929 368.022 388.929H302.941Z" fill="url(#paint1_linear_230_1275)"/>
</g>
<path d="M318.291 406.07C317.33 406.07 316.462 405.855 315.687 405.426C314.922 404.997 314.315 404.404 313.867 403.648C313.429 402.892 313.209 402.043 313.209 401.1C313.209 400.157 313.429 399.308 313.867 398.552C314.315 397.796 314.922 397.203 315.687 396.774C316.462 396.345 317.33 396.13 318.291 396.13C319.001 396.13 319.654 396.247 320.251 396.48C320.849 396.704 321.357 397.04 321.777 397.488L321.329 397.95C320.545 397.175 319.542 396.788 318.319 396.788C317.498 396.788 316.751 396.975 316.079 397.348C315.407 397.721 314.88 398.239 314.497 398.902C314.115 399.555 313.923 400.288 313.923 401.1C313.923 401.912 314.115 402.649 314.497 403.312C314.88 403.965 315.407 404.479 316.079 404.852C316.751 405.225 317.498 405.412 318.319 405.412C319.533 405.412 320.536 405.02 321.329 404.236L321.777 404.698C321.357 405.146 320.844 405.487 320.237 405.72C319.64 405.953 318.991 406.07 318.291 406.07ZM329.777 402.514H323.491C323.51 403.083 323.654 403.592 323.925 404.04C324.196 404.479 324.56 404.819 325.017 405.062C325.484 405.305 326.006 405.426 326.585 405.426C327.061 405.426 327.5 405.342 327.901 405.174C328.312 404.997 328.652 404.74 328.923 404.404L329.329 404.866C329.012 405.249 328.61 405.543 328.125 405.748C327.649 405.953 327.131 406.056 326.571 406.056C325.843 406.056 325.194 405.897 324.625 405.58C324.056 405.263 323.608 404.824 323.281 404.264C322.964 403.704 322.805 403.065 322.805 402.346C322.805 401.637 322.954 401.002 323.253 400.442C323.561 399.873 323.981 399.429 324.513 399.112C325.045 398.795 325.642 398.636 326.305 398.636C326.968 398.636 327.56 398.795 328.083 399.112C328.615 399.42 329.03 399.854 329.329 400.414C329.637 400.974 329.791 401.609 329.791 402.318L329.777 402.514ZM326.305 399.252C325.792 399.252 325.33 399.369 324.919 399.602C324.508 399.826 324.177 400.148 323.925 400.568C323.682 400.979 323.542 401.445 323.505 401.968H329.105C329.077 401.445 328.937 400.979 328.685 400.568C328.433 400.157 328.102 399.835 327.691 399.602C327.28 399.369 326.818 399.252 326.305 399.252ZM327.453 395.85H328.461L326.263 397.502H325.507L327.453 395.85ZM331.957 395.612H332.657V406H331.957V395.612ZM335.607 398.692H336.307V406H335.607V398.692ZM335.957 396.914C335.798 396.914 335.663 396.863 335.551 396.76C335.439 396.648 335.383 396.513 335.383 396.354C335.383 396.195 335.439 396.06 335.551 395.948C335.663 395.836 335.798 395.78 335.957 395.78C336.116 395.78 336.251 395.836 336.363 395.948C336.475 396.051 336.531 396.181 336.531 396.34C336.531 396.499 336.475 396.634 336.363 396.746C336.251 396.858 336.116 396.914 335.957 396.914ZM342.827 398.636C343.742 398.636 344.465 398.902 344.997 399.434C345.529 399.966 345.795 400.731 345.795 401.73V406H345.095V401.786C345.095 400.965 344.885 400.339 344.465 399.91C344.055 399.481 343.476 399.266 342.729 399.266C341.871 399.266 341.194 399.523 340.699 400.036C340.205 400.549 339.957 401.24 339.957 402.108V406H339.257V398.692H339.929V400.274C340.181 399.761 340.555 399.359 341.049 399.07C341.553 398.781 342.146 398.636 342.827 398.636ZM354.865 402.514H348.579C348.598 403.083 348.742 403.592 349.013 404.04C349.284 404.479 349.648 404.819 350.105 405.062C350.572 405.305 351.094 405.426 351.673 405.426C352.149 405.426 352.588 405.342 352.989 405.174C353.4 404.997 353.74 404.74 354.011 404.404L354.417 404.866C354.1 405.249 353.698 405.543 353.213 405.748C352.737 405.953 352.219 406.056 351.659 406.056C350.931 406.056 350.282 405.897 349.713 405.58C349.144 405.263 348.696 404.824 348.369 404.264C348.052 403.704 347.893 403.065 347.893 402.346C347.893 401.637 348.042 401.002 348.341 400.442C348.649 399.873 349.069 399.429 349.601 399.112C350.133 398.795 350.73 398.636 351.393 398.636C352.056 398.636 352.648 398.795 353.171 399.112C353.703 399.42 354.118 399.854 354.417 400.414C354.725 400.974 354.879 401.609 354.879 402.318L354.865 402.514ZM351.393 399.252C350.88 399.252 350.418 399.369 350.007 399.602C349.596 399.826 349.265 400.148 349.013 400.568C348.77 400.979 348.63 401.445 348.593 401.968H354.193C354.165 401.445 354.025 400.979 353.773 400.568C353.521 400.157 353.19 399.835 352.779 399.602C352.368 399.369 351.906 399.252 351.393 399.252Z" fill="white"/>
<defs>
<filter id="filter0_d_230_1275" x="0.742188" y="0" width="396.286" height="569" filterUnits="userSpaceOnUse" color-interpolation-filters="sRGB">
<feFlood flood-opacity="0" result="BackgroundImageFix"/>
<feColorMatrix in="SourceAlpha" type="matrix" values="0 0 0 0 0 0 0 0 0 0 0 0 0 0 0 0 0 0 127 0" result="hardAlpha"/>
<feOffset dy="4"/>
<feGaussianBlur stdDeviation="41.5"/>
<feComposite in2="hardAlpha" operator="out"/>
<feColorMatrix type="matrix" values="0 0 0 0 0 0 0 0 0 0 0 0 0 0 0 0 0 0 0.06 0"/>
<feBlend mode="normal" in2="BackgroundImageFix" result="effect1_dropShadow_230_1275"/>
<feBlend mode="normal" in="SourceGraphic" in2="effect1_dropShadow_230_1275" result="shape"/>
</filter>
<filter id="filter1_d_230_1275" x="18" y="130.731" width="102.719" height="45.3982" filterUnits="userSpaceOnUse" color-interpolation-filters="sRGB">
<feFlood flood-opacity="0" result="BackgroundImageFix"/>
<feColorMatrix in="SourceAlpha" type="matrix" values="0 0 0 0 0 0 0 0 0 0 0 0 0 0 0 0 0 0 127 0" result="hardAlpha"/>
<feOffset dy="4"/>
<feGaussianBlur stdDeviation="2"/>
<feComposite in2="hardAlpha" operator="out"/>
<feColorMatrix type="matrix" values="0 0 0 0 0.133333 0 0 0 0 0.862745 0 0 0 0 0.85098 0 0 0 0.1 0"/>
<feBlend mode="normal" in2="BackgroundImageFix" result="effect1_dropShadow_230_1275"/>
<feBlend mode="normal" in="SourceGraphic" in2="effect1_dropShadow_230_1275" result="shape"/>
</filter>
<filter id="filter2_d_230_1275" x="277.487" y="379.373" width="106.216" height="40.9189" filterUnits="userSpaceOnUse" color-interpolation-filters="sRGB">
<feFlood flood-opacity="0" result="BackgroundImageFix"/>
<feColorMatrix in="SourceAlpha" type="matrix" values="0 0 0 0 0 0 0 0 0 0 0 0 0 0 0 0 0 0 127 0" result="hardAlpha"/>
<feOffset dy="4"/>
<feGaussianBlur stdDeviation="2"/>
<feComposite in2="hardAlpha" operator="out"/>
<feColorMatrix type="matrix" values="0 0 0 0 0.819608 0 0 0 0 0.223529 0 0 0 0 0.54902 0 0 0 0.1 0"/>
<feBlend mode="normal" in2="BackgroundImageFix" result="effect1_dropShadow_230_1275"/>
<feBlend mode="normal" in="SourceGraphic" in2="effect1_dropShadow_230_1275" result="shape"/>
</filter>
<linearGradient id="paint0_linear_230_1275" x1="27.4234" y1="135.32" x2="107.94" y2="154.093" gradientUnits="userSpaceOnUse">
<stop stop-color="#0956E2"/>
<stop offset="1" stop-color="#22DCD9"/>
</linearGradient>
<linearGradient id="paint1_linear_230_1275" x1="296.684" y1="393.518" x2="377.201" y2="412.292" gradientUnits="userSpaceOnUse">
<stop stop-color="#F73E94"/>
<stop offset="1" stop-color="#42429A"/>
</linearGradient>
</defs>
</svg>
